<svg width="31" height="32" viewBox="0 0 31 32" fill="none" xmlns="http://www.w3.org/2000/svg">
<g filter="url(#filter0_d_3_490)">
<path d="M24.6873 1.56348H6.43097C5.43341 1.56348 4.56183 2.28125 4.56183 3.26709V21.564C4.56183 22.5552 5.43341 23.4385 6.43097 23.4385H24.6819C25.6849 23.4385 26.4368 22.5493 26.4368 21.564V3.26709C26.4427 2.28125 25.6849 1.56348 24.6873 1.56348ZM11.3426 19.7974H8.2088V10.0537H11.3426V19.7974ZM9.88409 8.57227H9.86163C8.8587 8.57227 8.20929 7.82568 8.20929 6.89111C8.20929 5.93945 8.87579 5.21045 9.90118 5.21045C10.9266 5.21045 11.554 5.93408 11.5765 6.89111C11.576 7.82568 10.9266 8.57227 9.88409 8.57227ZM22.7957 19.7974H19.6619V14.4697C19.6619 13.1934 19.2059 12.3213 18.0721 12.3213C17.2059 12.3213 16.6932 12.9072 16.4651 13.478C16.3797 13.6831 16.3567 13.9624 16.3567 14.2476V19.7974H13.223V10.0537H16.3567V11.4097C16.8128 10.7603 17.5252 9.82568 19.1829 9.82568C21.24 9.82568 22.7962 11.1816 22.7962 14.105L22.7957 19.7974Z" fill="white"/>
</g>
<defs>
<filter id="filter0_d_3_490" x="-1" y="0" width="33" height="33" filterUnits="userSpaceOnUse" color-interpolation-filters="sRGB">
<feFlood flood-opacity="0" result="BackgroundImageFix"/>
<feColorMatrix in="SourceAlpha" type="matrix" values="0 0 0 0 0 0 0 0 0 0 0 0 0 0 0 0 0 0 127 0" result="hardAlpha"/>
<feOffset dy="4"/>
<feGaussianBlur stdDeviation="2"/>
<feComposite in2="hardAlpha" operator="out"/>
<feColorMatrix type="matrix" values="0 0 0 0 0 0 0 0 0 0 0 0 0 0 0 0 0 0 0.25 0"/>
<feBlend mode="normal" in2="BackgroundImageFix" result="effect1_dropShadow_3_490"/>
<feBlend mode="normal" in="SourceGraphic" in2="effect1_dropShadow_3_490" result="shape"/>
</filter>
</defs>
</svg>
