<svg width="23" height="25" viewBox="0 0 23 25" fill="none" xmlns="http://www.w3.org/2000/svg">
<path d="M10.5004 2.34253C4.90027 2.34253 0.344116 6.89868 0.344116 12.4988C0.344116 18.0989 4.90027 22.655 10.5004 22.655C16.1005 22.655 20.6566 18.0989 20.6566 12.4988C20.6566 6.89868 16.1005 2.34253 10.5004 2.34253ZM10.598 7.03003C11.2933 7.03003 11.9731 7.23622 12.5512 7.62252C13.1293 8.00882 13.5799 8.55789 13.846 9.20028C14.1121 9.84268 14.1817 10.5496 14.0461 11.2315C13.9104 11.9135 13.5756 12.5399 13.0839 13.0316C12.5923 13.5232 11.9659 13.8581 11.2839 13.9937C10.6019 14.1294 9.89505 14.0598 9.25265 13.7937C8.61026 13.5276 8.06119 13.077 7.67489 12.4988C7.28859 11.9207 7.0824 11.241 7.0824 10.5457C7.0824 9.61325 7.45279 8.71904 8.1121 8.05973C8.77141 7.40043 9.66562 7.03003 10.598 7.03003ZM10.5004 21.0925C9.31504 21.093 8.1425 20.8477 7.05682 20.372C5.97113 19.8963 4.99591 19.2006 4.19275 18.3289C4.62439 16.0935 8.50134 15.6238 10.5004 15.6238C12.4994 15.6238 16.3763 16.0935 16.808 18.3284C16.0049 19.2003 15.0297 19.8961 13.944 20.3719C12.8583 20.8477 11.6857 21.0931 10.5004 21.0925Z" fill="white"/>
</svg>
