<svg width="23" height="25" viewBox="0 0 23 25" fill="none" xmlns="http://www.w3.org/2000/svg">
<path d="M14.4062 0.778076H6.59375C5.29933 0.778076 4.25 1.82741 4.25 3.12183V21.8718C4.25 23.1662 5.29933 24.2156 6.59375 24.2156H14.4062C15.7007 24.2156 16.75 23.1662 16.75 21.8718V3.12183C16.75 1.82741 15.7007 0.778076 14.4062 0.778076Z" stroke="white" stroke-width="1.00189" stroke-linecap="round" stroke-linejoin="round"/>
<path d="M6.59363 0.778076H7.76567C7.86929 0.778076 7.96866 0.819237 8.04192 0.892504C8.11519 0.965771 8.15635 1.06514 8.15635 1.16876C8.15635 1.37599 8.23867 1.57473 8.38521 1.72126C8.53174 1.8678 8.73048 1.95012 8.93771 1.95012H12.0632C12.2704 1.95012 12.4691 1.8678 12.6157 1.72126C12.7622 1.57473 12.8445 1.37599 12.8445 1.16876C12.8445 1.06514 12.8857 0.965771 12.9589 0.892504C13.0322 0.819237 13.1316 0.778076 13.2352 0.778076H14.4072" stroke="white" stroke-width="1.00189" stroke-linecap="round" stroke-linejoin="round"/>
</svg>
