<svg width="24" height="15" viewBox="0 0 24 15" fill="none" xmlns="http://www.w3.org/2000/svg">
<g clip-path="url(#clip0_19_2390)">
<path d="M0.00012207 0.276901H24.0001V14.2769H0.00012207V0.276901Z" fill="#EFEFEF"/>
<path d="M0.00012207 0.276901H24.0001V1.35351H0.00012207V0.276901ZM0.00012207 2.43012H24.0001V3.50673H0.00012207V2.43012ZM0.00012207 4.58333H24.0001V5.65994H0.00012207V4.58333ZM0.00012207 6.73655H24.0001V7.81316H0.00012207V6.73655ZM0.00012207 8.89386H24.0001V9.97047H0.00012207V8.89386ZM0.00012207 11.0471H24.0001V12.1237H0.00012207V11.0471ZM0.00012207 13.2003H24.0001V14.2769H0.00012207V13.2003Z" fill="#D80027"/>
<path d="M0.00012207 0.276901H12.0001V7.81316H0.00012207V0.276901Z" fill="#2E52B2"/>
<path d="M2.23636 5.96286L2.04922 5.43889L1.84337 5.96286H1.22583L1.72641 6.27807L1.53928 6.80204L2.04922 6.47865L2.54513 6.80204L2.35332 6.27807L2.86326 5.96286H2.23636ZM4.87027 5.96286L4.67846 5.43889L4.48197 5.96286H3.86443L4.36501 6.27807L4.17788 6.80204L4.67846 6.47865L5.18373 6.80204L4.99659 6.27807L5.49718 5.96286H4.87027ZM7.51355 5.96286L7.31238 5.43889L7.12525 5.96286H6.49367L7.00829 6.27807L6.8118 6.80204L7.31238 6.47865L7.827 6.80204L7.63051 6.27807L8.13109 5.96286H7.51355ZM10.1428 5.96286L9.95566 5.43889L9.75916 5.96286H9.13694L9.64221 6.27807L9.45507 6.80204L9.95566 6.47865L10.4609 6.80204L10.2597 6.27807L10.7744 5.96286H10.1428ZM4.67846 3.35935L4.48197 3.88333H3.86443L4.36501 4.20672L4.17788 4.72251L4.67846 4.40321L5.18373 4.72251L4.99659 4.20672L5.49718 3.88333H4.87027L4.67846 3.35935ZM2.04922 3.35935L1.84337 3.88333H1.22583L1.72641 4.20672L1.53928 4.72251L2.04922 4.40321L2.54513 4.72251L2.35332 4.20672L2.86326 3.88333H2.23636L2.04922 3.35935ZM7.31238 3.35935L7.12525 3.88333H6.49367L7.00829 4.20672L6.8118 4.72251L7.31238 4.40321L7.827 4.72251L7.63051 4.20672L8.13109 3.88333H7.51355L7.31238 3.35935ZM9.95566 3.35935L9.75916 3.88333H9.13694L9.64221 4.20672L9.45507 4.72251L9.95566 4.40321L10.4609 4.72251L10.2597 4.20672L10.7744 3.88333H10.1428L9.95566 3.35935ZM2.04922 1.28801L1.84337 1.8038H1.22583L1.72641 2.12719L1.53928 2.64707L2.04922 2.32368L2.54513 2.64707L2.35332 2.12719L2.86326 1.8038H2.23636L2.04922 1.28801ZM4.67846 1.28801L4.48197 1.8038H3.86443L4.36501 2.12719L4.17788 2.64707L4.67846 2.32368L5.18373 2.64707L4.99659 2.12719L5.49718 1.8038H4.87027L4.67846 1.28801ZM7.31238 1.28801L7.12525 1.8038H6.49367L7.00829 2.12719L6.8118 2.64707L7.31238 2.32368L7.827 2.64707L7.63051 2.12719L8.13109 1.8038H7.51355L7.31238 1.28801ZM9.95566 1.28801L9.75916 1.8038H9.13694L9.64221 2.12719L9.45507 2.64707L9.95566 2.32368L10.4609 2.64707L10.2597 2.12719L10.7744 1.8038H10.1428L9.95566 1.28801Z" fill="#EFEFEF"/>
</g>
<defs>
<clipPath id="clip0_19_2390">
<rect width="24" height="14" fill="white" transform="translate(0.00012207 0.276901)"/>
</clipPath>
</defs>
</svg>
